<svg width="411" height="55" fill="none" xmlns="http://www.w3.org/2000/svg"><path d="M22.84.68c4.52 0 8.48.86 11.88 2.58 3.4 1.72 6.04 4.2 7.92 7.44 1.88 3.2 2.82 7.1 2.82 11.7 0 4.48-.96 8.4-2.88 11.76-1.92 3.36-4.6 5.98-8.04 7.86-3.4 1.88-7.32 2.82-11.76 2.82-4.52 0-8.48-.86-11.88-2.58-3.4-1.72-6.04-4.2-7.92-7.44S.16 27.68.16 23.12c0-4.48.96-8.4 2.88-11.76C5 8 7.68 5.38 11.08 3.5 14.48 1.62 18.4.68 22.84.68Zm-.24 1.08c-2 0-3.74.9-5.22 2.7-1.48 1.8-2.62 4.28-3.42 7.44-.8 3.16-1.2 6.82-1.2 10.98 0 4.24.46 7.94 1.38 11.1.92 3.12 2.16 5.54 3.72 7.26 1.56 1.68 3.28 2.52 5.16 2.52 2 0 3.74-.9 5.22-2.7 1.48-1.8 2.62-4.28 3.42-7.44.8-3.2 1.2-6.86 1.2-10.98 0-4.28-.46-7.98-1.38-11.1-.92-3.12-2.16-5.52-3.72-7.2-1.56-1.72-3.28-2.58-5.16-2.58Zm54.729 10.26c2.36 0 4.08.54 5.16 1.62 1.12 1.08 1.68 2.46 1.68 4.14 0 1.76-.52 3.12-1.56 4.08-1 .96-2.26 1.44-3.78 1.44-.8 0-1.66-.14-2.58-.42a5.55 5.55 0 0 1-2.28-1.56c-.64-.72-.96-1.66-.96-2.82 0-.92.26-1.86.78-2.82.56-.96 1.46-1.76 2.7-2.4-1.36.08-2.38.42-3.06 1.02-.64.6-1.12 1.5-1.44 2.7-.32 1.16-.72 2.66-1.2 4.5-.28 1.12-.6 2.12-.96 3-.32.84-.8 1.54-1.44 2.1-.6.56-1.48 1-2.64 1.32l.06-.42c3.44-.56 6.2-.54 8.28.06 2.08.6 3.64 1.5 4.68 2.7.92 1.08 1.58 2.38 1.98 3.9.44 1.52 1.06 3.28 1.86 5.28.44 1.04.84 1.82 1.2 2.34.4.52 1.02.84 1.86.96V44c-.8.12-1.6.2-2.4.24-.76.08-1.52.12-2.28.12-2.64 0-4.82-.46-6.54-1.38-1.68-.96-2.8-2.7-3.36-5.22-.08-.48-.26-1.18-.54-2.1-.24-.96-.58-1.94-1.02-2.94-.4-1-.9-1.82-1.5-2.46-.52-.56-1.22-1-2.1-1.32-.84-.36-1.88-.46-3.12-.3v-1.08c1.68-.12 2.94-.42 3.78-.9.88-.48 1.54-1.22 1.98-2.22.44-1 .86-2.32 1.26-3.96.48-1.88.96-3.44 1.44-4.68.48-1.28 1.18-2.22 2.1-2.82.92-.64 2.24-.96 3.96-.96Zm-10.92.9v1.26c-1.24 0-2.12.3-2.64.9-.48.6-.72 1.74-.72 3.42v19.92c0 1.68.24 2.82.72 3.42.52.6 1.4.9 2.64.9V44c-.88-.04-2.18-.08-3.9-.12a103.472 103.472 0 0 0-9.96 0c-1.64.04-2.86.08-3.66.12v-1.26c1.24 0 2.1-.3 2.58-.9.52-.6.78-1.74.78-3.42V18.5c0-1.68-.26-2.82-.78-3.42-.48-.6-1.34-.9-2.58-.9v-1.26l3.96.18c1.8.04 3.5.06 5.1.06 1.64 0 3.26-.02 4.86-.06l3.6-.18Zm36.526-.9c1.76 0 3.32.18 4.68.54 1.36.36 2.44.78 3.24 1.26 1.08.64 1.94 1.5 2.58 2.58.68 1.04 1.02 2.26 1.02 3.66 0 1.64-.54 3.02-1.62 4.14-1.08 1.12-2.46 1.68-4.14 1.68-1.76 0-3.12-.5-4.08-1.5s-1.44-2.3-1.44-3.9c0-1.52.48-2.8 1.44-3.84 1-1.08 2.16-1.8 3.48-2.16-.28-.2-.62-.36-1.02-.48-.36-.16-.82-.24-1.38-.24-1.44 0-2.62.44-3.54 1.32-.88.84-1.58 1.96-2.1 3.36-.48 1.4-.82 2.9-1.02 4.5-.2 1.6-.3 3.16-.3 4.68 0 2.8.38 4.98 1.14 6.54.76 1.56 1.72 2.64 2.88 3.24 1.16.6 2.32.9 3.48.9.56 0 1.22-.08 1.98-.24.8-.16 1.66-.52 2.58-1.08.92-.6 1.82-1.5 2.7-2.7l1.02.36c-.48 1.6-1.26 3.2-2.34 4.8-1.04 1.56-2.4 2.86-4.08 3.9-1.68 1-3.72 1.5-6.12 1.5-2.68 0-5.12-.52-7.32-1.56-2.16-1.04-3.9-2.76-5.22-5.16-1.28-2.4-1.92-5.62-1.92-9.66 0-3.84.68-6.96 2.04-9.36 1.36-2.44 3.2-4.22 5.52-5.34 2.36-1.16 4.98-1.74 7.86-1.74ZM147.571.8v47.88c0 1.96.46 3.26 1.38 3.9.92.68 2.18 1.02 3.78 1.02v1.26c-1.04-.04-2.54-.1-4.5-.18-1.92-.04-3.94-.06-6.06-.06-2.08 0-4.1.02-6.06.06-1.96.08-3.46.14-4.5.18V53.6c1.64 0 2.9-.34 3.78-1.02.92-.64 1.38-1.94 1.38-3.9V8c0-1.8-.24-3.12-.72-3.96-.48-.88-1.36-1.32-2.64-1.32V1.46c.64.04 1.26.08 1.86.12.64.04 1.4.06 2.28.06 1.76 0 3.5-.06 5.22-.18 1.72-.16 3.32-.38 4.8-.66Zm-16.8 11.22c1.56 0 2.94.22 4.14.66 1.24.4 2.32 1.06 3.24 1.98l-.66.66a4.96 4.96 0 0 0-1.74-.96c-.64-.24-1.22-.36-1.74-.36-1.72 0-2.98 1.2-3.78 3.6-.8 2.36-1.2 6.04-1.2 11.04 0 3.6.2 6.4.6 8.4.4 1.96.96 3.34 1.68 4.14.72.76 1.56 1.14 2.52 1.14.6 0 1.2-.1 1.8-.3.6-.2 1.06-.38 1.38-.54v1.14c-.76.76-1.72 1.32-2.88 1.68-1.12.36-2.38.54-3.78.54-2.4 0-4.56-.56-6.48-1.68-1.88-1.16-3.36-2.94-4.44-5.34-1.08-2.4-1.62-5.52-1.62-9.36 0-3.72.52-6.78 1.56-9.18 1.04-2.44 2.52-4.26 4.44-5.46 1.96-1.2 4.28-1.8 6.96-1.8Zm24.66 0c3.56 0 6.3 1.26 8.22 3.78 1.92 2.48 2.88 6.36 2.88 11.64 0 3.28-.36 6.04-1.08 8.28-.72 2.24-1.7 4.04-2.94 5.4-1.24 1.32-2.68 2.28-4.32 2.88-1.64.56-3.38.84-5.22.84-1.24 0-2.48-.16-3.72-.48-1.2-.28-2.2-.84-3-1.68l.6-.78c.32.44.74.74 1.26.9.52.16 1 .24 1.44.24 1.4 0 2.52-.54 3.36-1.62.84-1.08 1.44-2.72 1.8-4.92.4-2.2.6-4.96.6-8.28 0-3.64-.2-6.44-.6-8.4-.4-1.96-.96-3.32-1.68-4.08-.72-.8-1.58-1.2-2.58-1.2-.52 0-1.12.08-1.8.24-.68.16-1.14.38-1.38.66V14.3c.56-.52 1.3-.94 2.22-1.26.96-.36 1.96-.62 3-.78 1.08-.16 2.06-.24 2.94-.24Zm30.298 0c3.12 0 5.82.54 8.1 1.62 2.32 1.04 4.12 2.76 5.4 5.16 1.28 2.4 1.92 5.62 1.92 9.66s-.64 7.26-1.92 9.66c-1.28 2.4-3.08 4.12-5.4 5.16-2.28 1.04-4.98 1.56-8.1 1.56-3.08 0-5.78-.52-8.1-1.56-2.32-1.04-4.12-2.76-5.4-5.16-1.28-2.4-1.92-5.62-1.92-9.66s.64-7.26 1.92-9.66c1.28-2.4 3.08-4.12 5.4-5.16 2.32-1.08 5.02-1.62 8.1-1.62Zm0 1.2c-1.2 0-2.2 1.2-3 3.6-.8 2.4-1.2 6.28-1.2 11.64s.4 9.24 1.2 11.64c.8 2.36 1.8 3.54 3 3.54s2.2-1.18 3-3.54c.8-2.4 1.2-6.28 1.2-11.64s-.4-9.24-1.2-11.64c-.8-2.4-1.8-3.6-3-3.6Zm32.531-.96v36.42c0 1.96.46 3.26 1.38 3.9.92.68 2.18 1.02 3.78 1.02v1.26c-1.12-.04-2.68-.1-4.68-.18-2-.04-4.12-.06-6.36-.06-1.6 0-3.18.02-4.74.06l-3.54.18V53.6c1.24 0 2.1-.3 2.58-.9.52-.6.78-1.74.78-3.42V19.46c0-1.8-.24-3.12-.72-3.96-.48-.88-1.36-1.32-2.64-1.32v-1.26c1.28.12 2.52.18 3.72.18 2 0 3.86-.06 5.58-.18 1.76-.16 3.38-.38 4.86-.66Zm9.12-.24c2 0 3.78.56 5.34 1.68 1.56 1.08 2.8 2.74 3.72 4.98.92 2.2 1.38 5 1.38 8.4 0 3.4-.38 6.24-1.14 8.52-.72 2.28-1.74 4.1-3.06 5.46-1.28 1.36-2.76 2.34-4.44 2.94-1.68.56-3.46.84-5.34.84-1.36 0-2.66-.16-3.9-.48-1.2-.28-2.2-.84-3-1.68l.6-.78c.32.44.74.74 1.26.9.52.16 1.04.24 1.56.24 1.48 0 2.68-.54 3.6-1.62.92-1.08 1.58-2.7 1.98-4.86.44-2.16.66-4.86.66-8.1 0-3.56-.18-6.3-.54-8.22-.36-1.92-.84-3.24-1.44-3.96-.6-.76-1.28-1.14-2.04-1.14-1.12 0-2.12.4-3 1.2-.88.8-1.32 1.84-1.32 3.12v-2.94c.92-1.52 2.16-2.64 3.72-3.36 1.56-.76 3.36-1.14 5.4-1.14Zm41.41.9v1.26c-1.04 0-1.76.3-2.16.9-.4.56-.6 1.68-.6 3.36v19.98c0 1.68.34 2.82 1.02 3.42.72.6 1.9.9 3.54.9-.16 1.4-.28 2.74-.36 4.02-.04 1.28-.06 2.26-.06 2.94 0 .72.02 1.4.06 2.04.04.68.08 1.24.12 1.68h-1.38c-.48-2.36-1.14-4.24-1.98-5.64-.8-1.36-1.84-2.34-3.12-2.94-1.28-.56-2.84-.84-4.68-.84h-9.84c-1.84 0-3.4.28-4.68.84-1.28.6-2.34 1.58-3.18 2.94-.8 1.4-1.44 3.28-1.92 5.64h-1.38c.08-.44.12-1 .12-1.68.04-.64.06-1.32.06-2.04 0-.68-.04-1.66-.12-2.94-.04-1.28-.14-2.62-.3-4.02h13.32c1.44 0 2.46-.3 3.06-.9.6-.6.9-1.74.9-3.42V18.5c0-1.68-.2-2.82-.6-3.42-.4-.6-1.12-.9-2.16-.9h-.54c-1.16 0-1.84.32-2.04.96-.2.64-.38 1.76-.54 3.36-.2 2.52-.42 4.98-.66 7.38a82.9 82.9 0 0 1-.96 6.84c-.4 2.12-1 4.06-1.8 5.82-.8 1.8-1.82 3.14-3.06 4.02-1.2.84-2.56 1.26-4.08 1.26l.3-1.08c1.32 0 2.46-.42 3.42-1.26a8.95 8.95 0 0 0 2.22-3.18c.8-1.72 1.4-3.66 1.8-5.82.44-2.2.76-4.48.96-6.84.24-2.4.44-4.78.6-7.14.12-1.68-.24-2.82-1.08-3.42-.8-.6-2.02-.9-3.66-.9v-1.26c.32.04.82.08 1.5.12h2.4c.72 0 1.48-.02 2.28-.06.8-.04 1.94-.06 3.42-.06 1.88 0 3.44.04 4.68.12 1.24.08 2.42.12 3.54.12 1.32 0 2.72-.02 4.2-.06l3.42-.18Zm34.146-.72v26.22c0 1.68.24 2.82.72 3.42.52.6 1.4.9 2.64.9V44c-.8-.04-1.98-.08-3.54-.12-1.52-.08-3.1-.12-4.74-.12-2.2 0-4.32.04-6.36.12-2 .04-3.56.08-4.68.12v-1.26c1.64 0 2.9-.32 3.78-.96.92-.68 1.38-2 1.38-3.96V23.06c0-1.92-.16-3.34-.48-4.26-.28-.92-.8-1.52-1.56-1.8s-1.8-.42-3.12-.42v-1.32c3.8-.08 6.94-.34 9.42-.78 2.48-.44 4.66-1.2 6.54-2.28Zm22.897-.18c4.76 0 8.5 1.5 11.22 4.5 2.72 2.96 4.08 7.16 4.08 12.6 0 3.16-.56 6-1.68 8.52-1.08 2.48-2.56 4.64-4.44 6.48-1.84 1.84-3.9 3.38-6.18 4.62a33.713 33.713 0 0 1-6.9 3c-2.32.76-4.5 1.26-6.54 1.5l-.24-1.2c1.84-.52 3.62-1.22 5.34-2.1 1.76-.88 3.34-2.16 4.74-3.84 1.44-1.64 2.58-3.86 3.42-6.66.84-2.84 1.26-6.48 1.26-10.92 0-3.84-.24-6.86-.72-9.06-.48-2.24-1.08-3.84-1.8-4.8s-1.46-1.44-2.22-1.44c-.72 0-1.4.42-2.04 1.26-.64.84-1.18 2.2-1.62 4.08-.4 1.84-.6 4.28-.6 7.32 0 2.84.18 5.14.54 6.9.4 1.72.92 2.96 1.56 3.72.64.76 1.34 1.14 2.1 1.14.56 0 1.18-.2 1.86-.6.72-.4 1.38-1.04 1.98-1.92.64-.88 1.08-2.04 1.32-3.48l.54.6c-.2 1.72-.72 3.1-1.56 4.14a7.362 7.362 0 0 1-3.12 2.28c-1.24.48-2.58.72-4.02.72-2.28 0-4.36-.52-6.24-1.56-1.88-1.08-3.38-2.58-4.5-4.5-1.12-1.96-1.68-4.26-1.68-6.9 0-3.12.74-5.74 2.22-7.86 1.52-2.16 3.5-3.78 5.94-4.86 2.44-1.12 5.1-1.68 7.98-1.68Zm42.541-.96c0 2.88.02 5.12.06 6.72.04 1.6.1 3.02.18 4.26-.32-.08-.94-.14-1.86-.18-.88-.04-1.9-.06-3.06-.06-1.16-.04-2.3-.06-3.42-.06h-11.16l-1.14 9.36c1.04-.8 2.44-1.46 4.2-1.98 1.76-.52 3.84-.78 6.24-.78 2.84 0 5.18.44 7.02 1.32 1.84.84 3.2 2 4.08 3.48.88 1.44 1.32 3.04 1.32 4.8 0 2.32-.78 4.4-2.34 6.24-1.52 1.84-3.56 3.4-6.12 4.68-2.56 1.32-5.4 2.32-8.52 3-3.12.68-6.26 1.02-9.42 1.02V51.8c1.92 0 3.78-.32 5.58-.96 1.84-.6 3.48-1.48 4.92-2.64 1.48-1.16 2.64-2.58 3.48-4.26.88-1.68 1.32-3.6 1.32-5.76 0-2.48-.54-4.38-1.62-5.7-1.08-1.32-2.68-1.98-4.8-1.98-1.24 0-2.32.2-3.24.6-.88.4-1.72.94-2.52 1.62l-.96-.66 2.4-19.38c.44.08.94.14 1.5.18.6.04 1.18.06 1.74.06h11.94c.88 0 1.54-.14 1.98-.42.48-.28.76-.76.84-1.44h1.38Zm24.796.96c3.44 0 6.46.66 9.06 1.98 2.64 1.32 4.7 3.18 6.18 5.58 1.52 2.36 2.28 5.14 2.28 8.34s-.76 6.08-2.28 8.64c-1.52 2.56-3.64 4.58-6.36 6.06-2.72 1.48-5.9 2.22-9.54 2.22-3.36 0-6.36-.66-9-1.98-2.64-1.32-4.72-3.18-6.24-5.58-1.52-2.4-2.28-5.2-2.28-8.4 0-3.16.74-6 2.22-8.52 1.52-2.56 3.64-4.58 6.36-6.06 2.76-1.52 5.96-2.28 9.6-2.28Zm-.54 1.08c-1.84 0-3.38 1.38-4.62 4.14-1.2 2.76-1.8 6.58-1.8 11.46 0 3.6.32 6.52.96 8.76.64 2.2 1.48 3.8 2.52 4.8s2.16 1.5 3.36 1.5c1.88 0 3.42-1.38 4.62-4.14 1.2-2.8 1.8-6.64 1.8-11.52 0-3.6-.32-6.5-.96-8.7-.64-2.2-1.48-3.8-2.52-4.8-1-1-2.12-1.5-3.36-1.5Z" fill="#D5B986"/></svg>