<svg width="411" height="55" viewBox="0 0 411 55" fill="none" xmlns="http://www.w3.org/2000/svg">
<path d="M22.84 0.679996C27.36 0.679996 31.32 1.54 34.72 3.26C38.12 4.98 40.76 7.46 42.64 10.7C44.52 13.9 45.46 17.8 45.46 22.4C45.46 26.88 44.5 30.8 42.58 34.16C40.66 37.52 37.98 40.14 34.54 42.02C31.14 43.9 27.22 44.84 22.78 44.84C18.26 44.84 14.3 43.98 10.9 42.26C7.5 40.54 4.86 38.06 2.98 34.82C1.1 31.58 0.16 27.68 0.16 23.12C0.16 18.64 1.12 14.72 3.04 11.36C5 8 7.68 5.38 11.08 3.5C14.48 1.62 18.4 0.679996 22.84 0.679996ZM22.6 1.76C20.6 1.76 18.86 2.66 17.38 4.46C15.9 6.26 14.76 8.74 13.96 11.9C13.16 15.06 12.76 18.72 12.76 22.88C12.76 27.12 13.22 30.82 14.14 33.98C15.06 37.1 16.3 39.52 17.86 41.24C19.42 42.92 21.14 43.76 23.02 43.76C25.02 43.76 26.76 42.86 28.24 41.06C29.72 39.26 30.86 36.78 31.66 33.62C32.46 30.42 32.86 26.76 32.86 22.64C32.86 18.36 32.4 14.66 31.48 11.54C30.56 8.42 29.32 6.02 27.76 4.34C26.2 2.62 24.48 1.76 22.6 1.76ZM77.3289 12.02C79.6889 12.02 81.4089 12.56 82.4889 13.64C83.6089 14.72 84.1689 16.1 84.1689 17.78C84.1689 19.54 83.6489 20.9 82.6089 21.86C81.6089 22.82 80.3489 23.3 78.8289 23.3C78.0289 23.3 77.1689 23.16 76.2489 22.88C75.3689 22.56 74.6089 22.04 73.9689 21.32C73.3289 20.6 73.0089 19.66 73.0089 18.5C73.0089 17.58 73.2689 16.64 73.7889 15.68C74.3489 14.72 75.2489 13.92 76.4889 13.28C75.1289 13.36 74.1089 13.7 73.4289 14.3C72.7889 14.9 72.3089 15.8 71.9889 17C71.6689 18.16 71.2689 19.66 70.7889 21.5C70.5089 22.62 70.1889 23.62 69.8289 24.5C69.5089 25.34 69.0289 26.04 68.3889 26.6C67.7889 27.16 66.9089 27.6 65.7489 27.92L65.8089 27.5C69.2489 26.94 72.0089 26.96 74.0889 27.56C76.1689 28.16 77.7289 29.06 78.7689 30.26C79.6889 31.34 80.3489 32.64 80.7489 34.16C81.1889 35.68 81.8089 37.44 82.6089 39.44C83.0489 40.48 83.4489 41.26 83.8089 41.78C84.2089 42.3 84.8289 42.62 85.6689 42.74V44C84.8689 44.12 84.0689 44.2 83.2689 44.24C82.5089 44.32 81.7489 44.36 80.9889 44.36C78.3489 44.36 76.1689 43.9 74.4489 42.98C72.7689 42.02 71.6489 40.28 71.0889 37.76C71.0089 37.28 70.8289 36.58 70.5489 35.66C70.3089 34.7 69.9689 33.72 69.5289 32.72C69.1289 31.72 68.6289 30.9 68.0289 30.26C67.5089 29.7 66.8089 29.26 65.9289 28.94C65.0889 28.58 64.0489 28.48 62.8089 28.64V27.56C64.4889 27.44 65.7489 27.14 66.5889 26.66C67.4689 26.18 68.1289 25.44 68.5689 24.44C69.0089 23.44 69.4289 22.12 69.8289 20.48C70.3089 18.6 70.7889 17.04 71.2689 15.8C71.7489 14.52 72.4489 13.58 73.3689 12.98C74.2889 12.34 75.6089 12.02 77.3289 12.02ZM66.4089 12.92V14.18C65.1689 14.18 64.2889 14.48 63.7689 15.08C63.2889 15.68 63.0489 16.82 63.0489 18.5V38.42C63.0489 40.1 63.2889 41.24 63.7689 41.84C64.2889 42.44 65.1689 42.74 66.4089 42.74V44C65.5289 43.96 64.2289 43.92 62.5089 43.88C60.7889 43.8 59.1089 43.76 57.4689 43.76C55.8689 43.76 54.2289 43.8 52.5489 43.88C50.9089 43.92 49.6889 43.96 48.8889 44V42.74C50.1289 42.74 50.9889 42.44 51.4689 41.84C51.9889 41.24 52.2489 40.1 52.2489 38.42V18.5C52.2489 16.82 51.9889 15.68 51.4689 15.08C50.9889 14.48 50.1289 14.18 48.8889 14.18V12.92C49.7689 12.96 51.0889 13.02 52.8489 13.1C54.6489 13.14 56.3489 13.16 57.9489 13.16C59.5889 13.16 61.2089 13.14 62.8089 13.1C64.4089 13.02 65.6089 12.96 66.4089 12.92ZM102.935 12.02C104.695 12.02 106.255 12.2 107.615 12.56C108.975 12.92 110.055 13.34 110.855 13.82C111.935 14.46 112.795 15.32 113.435 16.4C114.115 17.44 114.455 18.66 114.455 20.06C114.455 21.7 113.915 23.08 112.835 24.2C111.755 25.32 110.375 25.88 108.695 25.88C106.935 25.88 105.575 25.38 104.615 24.38C103.655 23.38 103.175 22.08 103.175 20.48C103.175 18.96 103.655 17.68 104.615 16.64C105.615 15.56 106.775 14.84 108.095 14.48C107.815 14.28 107.475 14.12 107.075 14C106.715 13.84 106.255 13.76 105.695 13.76C104.255 13.76 103.075 14.2 102.155 15.08C101.275 15.92 100.575 17.04 100.055 18.44C99.5748 19.84 99.2348 21.34 99.0348 22.94C98.8348 24.54 98.7348 26.1 98.7348 27.62C98.7348 30.42 99.1148 32.6 99.8748 34.16C100.635 35.72 101.595 36.8 102.755 37.4C103.915 38 105.075 38.3 106.235 38.3C106.795 38.3 107.455 38.22 108.215 38.06C109.015 37.9 109.875 37.54 110.795 36.98C111.715 36.38 112.615 35.48 113.495 34.28L114.515 34.64C114.035 36.24 113.255 37.84 112.175 39.44C111.135 41 109.775 42.3 108.095 43.34C106.415 44.34 104.375 44.84 101.975 44.84C99.2948 44.84 96.8548 44.32 94.6548 43.28C92.4948 42.24 90.7548 40.52 89.4348 38.12C88.1548 35.72 87.5148 32.5 87.5148 28.46C87.5148 24.62 88.1948 21.5 89.5548 19.1C90.9148 16.66 92.7548 14.88 95.0748 13.76C97.4348 12.6 100.055 12.02 102.935 12.02ZM147.571 0.799998V48.68C147.571 50.64 148.031 51.94 148.951 52.58C149.871 53.26 151.131 53.6 152.731 53.6V54.86C151.691 54.82 150.191 54.76 148.231 54.68C146.311 54.64 144.291 54.62 142.171 54.62C140.091 54.62 138.071 54.64 136.111 54.68C134.151 54.76 132.651 54.82 131.611 54.86V53.6C133.251 53.6 134.511 53.26 135.391 52.58C136.311 51.94 136.771 50.64 136.771 48.68V8C136.771 6.2 136.531 4.88 136.051 4.04C135.571 3.16 134.691 2.72 133.411 2.72V1.46C134.051 1.5 134.671 1.54 135.271 1.58C135.911 1.62 136.671 1.64 137.551 1.64C139.311 1.64 141.051 1.58 142.771 1.46C144.491 1.3 146.091 1.08 147.571 0.799998ZM130.771 12.02C132.331 12.02 133.711 12.24 134.911 12.68C136.151 13.08 137.231 13.74 138.151 14.66L137.491 15.32C136.971 14.88 136.391 14.56 135.751 14.36C135.111 14.12 134.531 14 134.011 14C132.291 14 131.031 15.2 130.231 17.6C129.431 19.96 129.031 23.64 129.031 28.64C129.031 32.24 129.231 35.04 129.631 37.04C130.031 39 130.591 40.38 131.311 41.18C132.031 41.94 132.871 42.32 133.831 42.32C134.431 42.32 135.031 42.22 135.631 42.02C136.231 41.82 136.691 41.64 137.011 41.48V42.62C136.251 43.38 135.291 43.94 134.131 44.3C133.011 44.66 131.751 44.84 130.351 44.84C127.951 44.84 125.791 44.28 123.871 43.16C121.991 42 120.511 40.22 119.431 37.82C118.351 35.42 117.811 32.3 117.811 28.46C117.811 24.74 118.331 21.68 119.371 19.28C120.411 16.84 121.891 15.02 123.811 13.82C125.771 12.62 128.091 12.02 130.771 12.02ZM155.431 12.02C158.991 12.02 161.731 13.28 163.651 15.8C165.571 18.28 166.531 22.16 166.531 27.44C166.531 30.72 166.171 33.48 165.451 35.72C164.731 37.96 163.751 39.76 162.511 41.12C161.271 42.44 159.831 43.4 158.191 44C156.551 44.56 154.811 44.84 152.971 44.84C151.731 44.84 150.491 44.68 149.251 44.36C148.051 44.08 147.051 43.52 146.251 42.68L146.851 41.9C147.171 42.34 147.591 42.64 148.111 42.8C148.631 42.96 149.111 43.04 149.551 43.04C150.951 43.04 152.071 42.5 152.911 41.42C153.751 40.34 154.351 38.7 154.711 36.5C155.111 34.3 155.311 31.54 155.311 28.22C155.311 24.58 155.111 21.78 154.711 19.82C154.311 17.86 153.751 16.5 153.031 15.74C152.311 14.94 151.451 14.54 150.451 14.54C149.931 14.54 149.331 14.62 148.651 14.78C147.971 14.94 147.511 15.16 147.271 15.44V14.3C147.831 13.78 148.571 13.36 149.491 13.04C150.451 12.68 151.451 12.42 152.491 12.26C153.571 12.1 154.551 12.02 155.431 12.02ZM185.729 12.02C188.849 12.02 191.549 12.56 193.829 13.64C196.149 14.68 197.949 16.4 199.229 18.8C200.509 21.2 201.149 24.42 201.149 28.46C201.149 32.5 200.509 35.72 199.229 38.12C197.949 40.52 196.149 42.24 193.829 43.28C191.549 44.32 188.849 44.84 185.729 44.84C182.649 44.84 179.949 44.32 177.629 43.28C175.309 42.24 173.509 40.52 172.229 38.12C170.949 35.72 170.309 32.5 170.309 28.46C170.309 24.42 170.949 21.2 172.229 18.8C173.509 16.4 175.309 14.68 177.629 13.64C179.949 12.56 182.649 12.02 185.729 12.02ZM185.729 13.22C184.529 13.22 183.529 14.42 182.729 16.82C181.929 19.22 181.529 23.1 181.529 28.46C181.529 33.82 181.929 37.7 182.729 40.1C183.529 42.46 184.529 43.64 185.729 43.64C186.929 43.64 187.929 42.46 188.729 40.1C189.529 37.7 189.929 33.82 189.929 28.46C189.929 23.1 189.529 19.22 188.729 16.82C187.929 14.42 186.929 13.22 185.729 13.22ZM218.26 12.26V48.68C218.26 50.64 218.72 51.94 219.64 52.58C220.56 53.26 221.82 53.6 223.42 53.6V54.86C222.3 54.82 220.74 54.76 218.74 54.68C216.74 54.64 214.62 54.62 212.38 54.62C210.78 54.62 209.2 54.64 207.64 54.68C206.08 54.76 204.9 54.82 204.1 54.86V53.6C205.34 53.6 206.2 53.3 206.68 52.7C207.2 52.1 207.46 50.96 207.46 49.28V19.46C207.46 17.66 207.22 16.34 206.74 15.5C206.26 14.62 205.38 14.18 204.1 14.18V12.92C205.38 13.04 206.62 13.1 207.82 13.1C209.82 13.1 211.68 13.04 213.4 12.92C215.16 12.76 216.78 12.54 218.26 12.26ZM227.38 12.02C229.38 12.02 231.16 12.58 232.72 13.7C234.28 14.78 235.52 16.44 236.44 18.68C237.36 20.88 237.82 23.68 237.82 27.08C237.82 30.48 237.44 33.32 236.68 35.6C235.96 37.88 234.94 39.7 233.62 41.06C232.34 42.42 230.86 43.4 229.18 44C227.5 44.56 225.72 44.84 223.84 44.84C222.48 44.84 221.18 44.68 219.94 44.36C218.74 44.08 217.74 43.52 216.94 42.68L217.54 41.9C217.86 42.34 218.28 42.64 218.8 42.8C219.32 42.96 219.84 43.04 220.36 43.04C221.84 43.04 223.04 42.5 223.96 41.42C224.88 40.34 225.54 38.72 225.94 36.56C226.38 34.4 226.6 31.7 226.6 28.46C226.6 24.9 226.42 22.16 226.06 20.24C225.7 18.32 225.22 17 224.62 16.28C224.02 15.52 223.34 15.14 222.58 15.14C221.46 15.14 220.46 15.54 219.58 16.34C218.7 17.14 218.26 18.18 218.26 19.46V16.52C219.18 15 220.42 13.88 221.98 13.16C223.54 12.4 225.34 12.02 227.38 12.02ZM268.79 12.92V14.18C267.75 14.18 267.03 14.48 266.63 15.08C266.23 15.64 266.03 16.76 266.03 18.44V38.42C266.03 40.1 266.37 41.24 267.05 41.84C267.77 42.44 268.95 42.74 270.59 42.74C270.43 44.14 270.31 45.48 270.23 46.76C270.19 48.04 270.17 49.02 270.17 49.7C270.17 50.42 270.19 51.1 270.23 51.74C270.27 52.42 270.31 52.98 270.35 53.42H268.97C268.49 51.06 267.83 49.18 266.99 47.78C266.19 46.42 265.15 45.44 263.87 44.84C262.59 44.28 261.03 44 259.19 44C258.35 44 257.51 44 256.67 44C255.87 44 255.07 44 254.27 44C253.47 44 252.65 44 251.81 44C251.01 44 250.19 44 249.35 44C247.51 44 245.95 44.28 244.67 44.84C243.39 45.44 242.33 46.42 241.49 47.78C240.69 49.18 240.05 51.06 239.57 53.42H238.19C238.27 52.98 238.31 52.42 238.31 51.74C238.35 51.1 238.37 50.42 238.37 49.7C238.37 49.02 238.33 48.04 238.25 46.76C238.21 45.48 238.11 44.14 237.95 42.74H251.27C252.71 42.74 253.73 42.44 254.33 41.84C254.93 41.24 255.23 40.1 255.23 38.42V18.5C255.23 16.82 255.03 15.68 254.63 15.08C254.23 14.48 253.51 14.18 252.47 14.18H251.93C250.77 14.18 250.09 14.5 249.89 15.14C249.69 15.78 249.51 16.9 249.35 18.5C249.15 21.02 248.93 23.48 248.69 25.88C248.45 28.28 248.13 30.56 247.73 32.72C247.33 34.84 246.73 36.78 245.93 38.54C245.13 40.34 244.11 41.68 242.87 42.56C241.67 43.4 240.31 43.82 238.79 43.82L239.09 42.74C240.41 42.74 241.55 42.32 242.51 41.48C243.47 40.6 244.21 39.54 244.73 38.3C245.53 36.58 246.13 34.64 246.53 32.48C246.97 30.28 247.29 28 247.49 25.64C247.73 23.24 247.93 20.86 248.09 18.5C248.21 16.82 247.85 15.68 247.01 15.08C246.21 14.48 244.99 14.18 243.35 14.18V12.92C243.67 12.96 244.17 13 244.85 13.04C245.57 13.04 246.37 13.04 247.25 13.04C247.97 13.04 248.73 13.02 249.53 12.98C250.33 12.94 251.47 12.92 252.95 12.92C254.83 12.92 256.39 12.96 257.63 13.04C258.87 13.12 260.05 13.16 261.17 13.16C262.49 13.16 263.89 13.14 265.37 13.1C266.89 13.02 268.03 12.96 268.79 12.92ZM302.936 12.2V38.42C302.936 40.1 303.176 41.24 303.656 41.84C304.176 42.44 305.056 42.74 306.296 42.74V44C305.496 43.96 304.316 43.92 302.756 43.88C301.236 43.8 299.656 43.76 298.016 43.76C295.816 43.76 293.696 43.8 291.656 43.88C289.656 43.92 288.096 43.96 286.976 44V42.74C288.616 42.74 289.876 42.42 290.756 41.78C291.676 41.1 292.136 39.78 292.136 37.82V23.06C292.136 21.14 291.976 19.72 291.656 18.8C291.376 17.88 290.856 17.28 290.096 17C289.336 16.72 288.296 16.58 286.976 16.58V15.26C290.776 15.18 293.916 14.92 296.396 14.48C298.876 14.04 301.056 13.28 302.936 12.2ZM325.833 12.02C330.593 12.02 334.333 13.52 337.053 16.52C339.773 19.48 341.133 23.68 341.133 29.12C341.133 32.28 340.573 35.12 339.453 37.64C338.373 40.12 336.893 42.28 335.013 44.12C333.173 45.96 331.113 47.5 328.833 48.74C326.593 50.02 324.293 51.02 321.933 51.74C319.613 52.5 317.433 53 315.393 53.24L315.153 52.04C316.993 51.52 318.773 50.82 320.493 49.94C322.253 49.06 323.833 47.78 325.233 46.1C326.673 44.46 327.813 42.24 328.653 39.44C329.493 36.6 329.913 32.96 329.913 28.52C329.913 24.68 329.673 21.66 329.193 19.46C328.713 17.22 328.113 15.62 327.393 14.66C326.673 13.7 325.933 13.22 325.173 13.22C324.453 13.22 323.773 13.64 323.133 14.48C322.493 15.32 321.953 16.68 321.513 18.56C321.113 20.4 320.913 22.84 320.913 25.88C320.913 28.72 321.093 31.02 321.453 32.78C321.853 34.5 322.373 35.74 323.013 36.5C323.653 37.26 324.353 37.64 325.113 37.64C325.673 37.64 326.293 37.44 326.973 37.04C327.693 36.64 328.353 36 328.953 35.12C329.593 34.24 330.033 33.08 330.273 31.64L330.813 32.24C330.613 33.96 330.093 35.34 329.253 36.38C328.413 37.42 327.373 38.18 326.133 38.66C324.893 39.14 323.553 39.38 322.113 39.38C319.833 39.38 317.753 38.86 315.873 37.82C313.993 36.74 312.493 35.24 311.373 33.32C310.253 31.36 309.693 29.06 309.693 26.42C309.693 23.3 310.433 20.68 311.913 18.56C313.433 16.4 315.413 14.78 317.853 13.7C320.293 12.58 322.953 12.02 325.833 12.02ZM368.374 11.06C368.374 13.94 368.394 16.18 368.434 17.78C368.474 19.38 368.534 20.8 368.614 22.04C368.294 21.96 367.674 21.9 366.754 21.86C365.874 21.82 364.854 21.8 363.694 21.8C362.534 21.76 361.394 21.74 360.274 21.74H349.114L347.974 31.1C349.014 30.3 350.414 29.64 352.174 29.12C353.934 28.6 356.014 28.34 358.414 28.34C361.254 28.34 363.594 28.78 365.434 29.66C367.274 30.5 368.634 31.66 369.514 33.14C370.394 34.58 370.834 36.18 370.834 37.94C370.834 40.26 370.054 42.34 368.494 44.18C366.974 46.02 364.934 47.58 362.374 48.86C359.814 50.18 356.974 51.18 353.854 51.86C350.734 52.54 347.594 52.88 344.434 52.88V51.8C346.354 51.8 348.214 51.48 350.014 50.84C351.854 50.24 353.494 49.36 354.934 48.2C356.414 47.04 357.574 45.62 358.414 43.94C359.294 42.26 359.734 40.34 359.734 38.18C359.734 35.7 359.194 33.8 358.114 32.48C357.034 31.16 355.434 30.5 353.314 30.5C352.074 30.5 350.994 30.7 350.074 31.1C349.194 31.5 348.354 32.04 347.554 32.72L346.594 32.06L348.994 12.68C349.434 12.76 349.934 12.82 350.494 12.86C351.094 12.9 351.674 12.92 352.234 12.92H364.174C365.054 12.92 365.714 12.78 366.154 12.5C366.634 12.22 366.914 11.74 366.994 11.06H368.374ZM393.17 12.02C396.61 12.02 399.63 12.68 402.23 14C404.87 15.32 406.93 17.18 408.41 19.58C409.93 21.94 410.69 24.72 410.69 27.92C410.69 31.12 409.93 34 408.41 36.56C406.89 39.12 404.77 41.14 402.05 42.62C399.33 44.1 396.15 44.84 392.51 44.84C389.15 44.84 386.15 44.18 383.51 42.86C380.87 41.54 378.79 39.68 377.27 37.28C375.75 34.88 374.99 32.08 374.99 28.88C374.99 25.72 375.73 22.88 377.21 20.36C378.73 17.8 380.85 15.78 383.57 14.3C386.33 12.78 389.53 12.02 393.17 12.02ZM392.63 13.1C390.79 13.1 389.25 14.48 388.01 17.24C386.81 20 386.21 23.82 386.21 28.7C386.21 32.3 386.53 35.22 387.17 37.46C387.81 39.66 388.65 41.26 389.69 42.26C390.73 43.26 391.85 43.76 393.05 43.76C394.93 43.76 396.47 42.38 397.67 39.62C398.87 36.82 399.47 32.98 399.47 28.1C399.47 24.5 399.15 21.6 398.51 19.4C397.87 17.2 397.03 15.6 395.99 14.6C394.99 13.6 393.87 13.1 392.63 13.1Z" fill="#D5B986"/>
</svg>
